<svg width="42" height="21" viewBox="0 0 42 21" fill="none" xmlns="http://www.w3.org/2000/svg">
<path d="M41.0423 12.0101C41.0419 12.0105 41.0415 12.0111 41.0409 12.0116L32.6663 20.3458C32.0389 20.9701 31.0241 20.9678 30.3996 20.3403C29.7752 19.713 29.7776 18.6982 30.405 18.0738L36.0277 12.4783H2.08516C1.19997 12.4783 0.482422 11.7607 0.482422 10.8756C0.482422 9.99037 1.19997 9.27283 2.08516 9.27283H36.0276L30.4051 3.67736C29.7777 3.05294 29.7753 2.03817 30.3997 1.41078C31.0242 0.783228 32.0391 0.781065 32.6664 1.40533L41.041 9.73954C41.0415 9.74002 41.0419 9.74058 41.0424 9.74106C41.6701 10.3676 41.6681 11.3856 41.0423 12.0101Z" fill="#3E3E3F"/>
</svg>
