<svg width="153" height="216" viewBox="0 0 153 216"  xmlns="http://www.w3.org/2000/svg">
<path   d="M20.8022 105.496L38.6926 100.234V92.3411L20.8022 81.8174V105.496Z"  stroke="#A5E5F4"   />
<path   d="M49.7385 13.9393L69.7337 25.5154L113.407 13.9393C122.352 11.8345 132.35 12.3607 140.243 18.1488C140.243 18.1488 115.512 -3.42493 93.9383 2.36314L49.7385 13.9393Z"  stroke="#A5E5F4"   />
<path   d="M49.2147 178.637L38.6909 172.322L49.7409 169.691V167.06C49.7409 163.377 49.2147 159.694 48.6885 156.01C48.6885 156.01 48.6885 156.01 48.6885 155.484C48.6885 154.432 48.1623 153.38 48.1623 152.327C26.0624 158.115 22.9053 159.168 0.80542 164.956L38.6909 186.529C47.1099 192.317 48.6885 187.582 49.2147 178.637Z"  stroke="#A5E5F4"   />
<path   d="M113.406 13.9388L69.2058 25.5149V38.1434V109.705L87.0962 104.969V44.9838L112.879 38.1434C129.717 33.4077 134.453 39.1958 134.453 54.9814V123.912C134.453 140.75 121.298 149.169 113.406 151.8L87.0962 158.64V159.167V181.793L116.563 174.426C137.61 168.638 151.817 148.643 151.817 129.174C151.817 100.76 151.817 72.3456 151.817 43.9315C152.343 23.4101 135.505 7.62451 113.406 13.9388Z"  stroke="#A5E5F4"   />
<path   d="M134.448 124.438V54.9814C134.448 39.7219 129.712 34.4601 114.453 38.1434V114.967C113.926 130.226 108.138 137.067 92.3527 141.276C89.7218 141.802 87.617 142.855 84.9861 143.381C86.5646 148.117 87.0908 153.378 87.0908 159.693L113.4 152.852C124.976 148.643 133.395 140.224 134.448 127.069C134.448 125.491 134.448 124.964 134.448 124.438Z"  stroke="#A5E5F4"   />
<path   d="M49.735 169.164L38.6851 172.321L49.735 178.636C49.735 176.005 49.735 173.374 49.735 170.743V169.164Z"  stroke="#A5E5F4"   />
<path   d="M87.1019 187.58C87.1019 186.528 87.1019 185.475 87.1019 184.423V183.371V160.218C86.5757 128.647 66.0544 116.545 66.0544 116.545L38.6926 100.759L20.8022 105.495L48.164 121.281C68.6853 132.331 69.2115 161.271 69.2115 164.954V165.48V188.633C69.2115 189.159 69.2115 189.685 69.2115 190.211C68.6853 193.368 66.5806 208.628 52.8997 214.416L69.7377 208.628C72.3686 207.575 85.5233 200.209 87.1019 187.58Z"  stroke="#A5E5F4"   />
<path   d="M49.7409 59.1907L18.6958 41.3003L0.80542 46.036L49.7409 74.4501V59.1907Z"  stroke="#A5E5F4"   />
<path   d="M0.80542 165.482L38.6909 187.056C49.7409 193.37 49.2147 183.372 49.7409 170.218V167.061C49.2147 157.589 49.2147 144.961 39.2171 139.699L0.80542 117.599C0.80542 93.9205 0.80542 69.7158 0.80542 46.0374L49.7409 74.4515V13.9399L69.736 25.5161V109.706L20.8006 81.8182V105.497L48.1623 121.282C66.0527 131.28 69.2098 150.749 69.2098 167.061V188.108C69.2098 200.737 56.5813 221.784 39.7433 212.313L0.80542 189.687V167.587V165.482Z"  stroke="#A5E5F4"   />
</svg>
