<svg width="327" height="329" viewBox="0 0 327 329" fill="none" xmlns="http://www.w3.org/2000/svg">
<mask id="mask0_503_183" style="mask-type:alpha" maskUnits="userSpaceOnUse" x="0" y="0" width="327" height="329">
<rect width="327" height="329" fill="#D9D9D9"/>
</mask>
<g mask="url(#mask0_503_183)">
<mask id="mask1_503_183" style="mask-type:alpha" maskUnits="userSpaceOnUse" x="-67" y="-133" width="428" height="727">
<line x1="-66.2789" y1="154.505" x2="360.721" y2="-132.415" stroke="#A5E5F4"/>
<line x1="-66.2789" y1="162.783" x2="360.721" y2="-124.137" stroke="#A5E5F4"/>
<line x1="-66.2789" y1="171.061" x2="360.721" y2="-115.859" stroke="#A5E5F4"/>
<line x1="-66.2789" y1="179.339" x2="360.721" y2="-107.581" stroke="#A5E5F4"/>
<line x1="-66.2789" y1="187.616" x2="360.721" y2="-99.3034" stroke="#A5E5F4"/>
<line x1="-66.2789" y1="195.895" x2="360.721" y2="-91.0253" stroke="#A5E5F4"/>
<line x1="-66.2789" y1="204.172" x2="360.721" y2="-82.7475" stroke="#A5E5F4"/>
<line x1="-66.2789" y1="212.45" x2="360.721" y2="-74.4697" stroke="#A5E5F4"/>
<line x1="-66.2789" y1="220.728" x2="360.721" y2="-66.1916" stroke="#A5E5F4"/>
<line x1="-66.2789" y1="229.006" x2="360.721" y2="-57.9138" stroke="#A5E5F4"/>
<line x1="-66.2789" y1="237.284" x2="360.721" y2="-49.6357" stroke="#A5E5F4"/>
<line x1="-66.2789" y1="245.562" x2="360.721" y2="-41.3579" stroke="#A5E5F4"/>
<line x1="-66.2789" y1="253.84" x2="360.721" y2="-33.08" stroke="#A5E5F4"/>
<line x1="-66.2789" y1="262.118" x2="360.721" y2="-24.8019" stroke="#A5E5F4"/>
<line x1="-66.2789" y1="270.396" x2="360.721" y2="-16.5239" stroke="#A5E5F4"/>
<line x1="-66.2789" y1="278.674" x2="360.721" y2="-8.24604" stroke="#A5E5F4"/>
<line x1="-66.2789" y1="286.952" x2="360.721" y2="0.0317928" stroke="#A5E5F4"/>
<line x1="-66.2789" y1="295.23" x2="360.721" y2="8.30987" stroke="#A5E5F4"/>
<line x1="-66.2789" y1="303.508" x2="360.721" y2="16.5877" stroke="#A5E5F4"/>
<line x1="-66.2789" y1="311.786" x2="360.721" y2="24.8658" stroke="#A5E5F4"/>
<line x1="-66.2789" y1="320.064" x2="360.721" y2="33.1436" stroke="#A5E5F4"/>
<line x1="-66.2789" y1="328.341" x2="360.721" y2="41.4214" stroke="#A5E5F4"/>
<line x1="-66.2789" y1="336.619" x2="360.721" y2="49.6995" stroke="#A5E5F4"/>
<line x1="-66.2789" y1="344.897" x2="360.721" y2="57.9773" stroke="#A5E5F4"/>
<line x1="-66.2789" y1="353.175" x2="360.721" y2="66.2554" stroke="#A5E5F4"/>
<line x1="-66.2789" y1="361.453" x2="360.721" y2="74.5333" stroke="#A5E5F4"/>
<line x1="-66.2789" y1="369.731" x2="360.721" y2="82.8111" stroke="#A5E5F4"/>
<line x1="-66.2789" y1="378.009" x2="360.721" y2="91.0892" stroke="#A5E5F4"/>
<line x1="-66.2789" y1="386.287" x2="360.721" y2="99.367" stroke="#A5E5F4"/>
<line x1="-66.2789" y1="394.565" x2="360.721" y2="107.645" stroke="#A5E5F4"/>
<line x1="-66.2789" y1="402.843" x2="360.721" y2="115.923" stroke="#A5E5F4"/>
<line x1="-66.2789" y1="411.121" x2="360.721" y2="124.201" stroke="#A5E5F4"/>
<line x1="-66.2789" y1="419.399" x2="360.721" y2="132.479" stroke="#A5E5F4"/>
<line x1="-66.2789" y1="427.677" x2="360.721" y2="140.757" stroke="#A5E5F4"/>
<line x1="-66.2789" y1="435.955" x2="360.721" y2="149.035" stroke="#A5E5F4"/>
<line x1="-66.2789" y1="444.232" x2="360.721" y2="157.313" stroke="#A5E5F4"/>
<line x1="-66.2789" y1="452.51" x2="360.721" y2="165.59" stroke="#A5E5F4"/>
<line x1="-66.2789" y1="460.788" x2="360.721" y2="173.868" stroke="#A5E5F4"/>
<line x1="-66.2789" y1="469.066" x2="360.721" y2="182.146" stroke="#A5E5F4"/>
<line x1="-66.2789" y1="477.344" x2="360.721" y2="190.424" stroke="#A5E5F4"/>
<line x1="-66.2789" y1="485.622" x2="360.721" y2="198.702" stroke="#A5E5F4"/>
<line x1="-66.2789" y1="493.9" x2="360.721" y2="206.98" stroke="#A5E5F4"/>
<line x1="-66.2789" y1="502.178" x2="360.721" y2="215.258" stroke="#A5E5F4"/>
<line x1="-66.2789" y1="510.456" x2="360.721" y2="223.536" stroke="#A5E5F4"/>
<line x1="-66.2789" y1="518.734" x2="360.721" y2="231.814" stroke="#A5E5F4"/>
<line x1="-66.2789" y1="527.012" x2="360.721" y2="240.092" stroke="#A5E5F4"/>
<line x1="-66.2789" y1="535.29" x2="360.721" y2="248.37" stroke="#A5E5F4"/>
<line x1="-66.2789" y1="543.568" x2="360.721" y2="256.648" stroke="#A5E5F4"/>
<line x1="-66.2789" y1="551.845" x2="360.721" y2="264.926" stroke="#A5E5F4"/>
<line x1="-66.2789" y1="560.124" x2="360.721" y2="273.204" stroke="#A5E5F4"/>
<line x1="-66.2789" y1="568.401" x2="360.721" y2="281.482" stroke="#A5E5F4"/>
<line x1="-66.2789" y1="576.679" x2="360.721" y2="289.759" stroke="#A5E5F4"/>
<line x1="-66.2789" y1="584.957" x2="360.721" y2="298.037" stroke="#A5E5F4"/>
<line x1="-66.2789" y1="593.235" x2="360.721" y2="306.315" stroke="#A5E5F4"/>
</mask>
<g mask="url(#mask1_503_183)">
<path d="M324.912 326.994H0V108.964L162.299 0L324.912 108.964V326.994Z" fill="#A5E5F4"/>
</g>
<path d="M325.735 326.891H0.823242V108.86L163.122 -0.10376L325.735 108.86V326.891Z" stroke="#A5E5F4" stroke-miterlimit="10"/>
</g>
</svg>
